<svg id="imdb-logo" xmlns="http://www.w3.org/2000/svg" width="60" height="30" viewBox="0 0 60 30">
  <g id="Group_1" data-name="Group 1">
    <path id="Path_1" data-name="Path 1" d="M416.452,351.2h52.5a3.751,3.751,0,0,1,3.752,3.752v22.5a3.751,3.751,0,0,1-3.752,3.752h-52.5a3.751,3.751,0,0,1-3.752-3.752v-22.5A3.75,3.75,0,0,1,416.452,351.2Z" transform="translate(-412.7 -351.2)" fill="#fff"/>
  </g>
  <g id="Group_2" data-name="Group 2" transform="translate(7.499 6.557)">
    <path id="Path_2" data-name="Path 2" d="M541.6,480.776h4.689V463.9H541.6Z" transform="translate(-541.6 -463.9)"/>
    <path id="Path_3" data-name="Path 3" d="M669.529,463.9l-1.052,7.882-.652-4.289c-.192-1.375-.372-2.569-.542-3.593H661.4v16.876h3.977l.016-11.141,1.671,11.141H669.9l1.588-11.388.011,11.388h3.966V463.9Z" transform="translate(-654.838 -463.9)"/>
    <path id="Path_4" data-name="Path 4" d="M952.4,480.776V463.9h7.318a2.986,2.986,0,0,1,3,2.98V477.8a2.986,2.986,0,0,1-3,2.98Zm5.466-13.836a2.555,2.555,0,0,0-1.057-.148v11.07c.685,0,1.1-.12,1.26-.378a5.074,5.074,0,0,0,.241-2.06v-6.546a7.854,7.854,0,0,0-.082-1.468A.707.707,0,0,0,957.867,466.94Z" transform="translate(-929.899 -463.9)"/>
    <path id="Path_5" data-name="Path 5" d="M1181.862,468.129h.3a3,3,0,0,1,3.046,2.941v6.765a2.994,2.994,0,0,1-3.046,2.941h-.3a3.078,3.078,0,0,1-2.492-1.249l-.268,1.03h-4.2V463.9h4.486v5.417A3.169,3.169,0,0,1,1181.862,468.129Zm-.958,8.227v-4a3.931,3.931,0,0,0-.131-1.293.835.835,0,0,0-.69-.329c-.246,0-.63.1-.7.279v6.765c.082.192.449.3.7.3s.624-.1.7-.3A4.843,4.843,0,0,0,1180.9,476.356Z" transform="translate(-1140.211 -463.9)"/>
  </g>
</svg>
